<?xml version="1.0" standalone="no"?><!DOCTYPE svg PUBLIC "-//W3C//DTD SVG 1.1//EN" "http://www.w3.org/Graphics/SVG/1.1/DTD/svg11.dtd"><svg t="1618504157196" class="icon" viewBox="0 0 1024 1024" version="1.1" xmlns="http://www.w3.org/2000/svg" p-id="1986" xmlns:xlink="http://www.w3.org/1999/xlink" width="32" height="32"><defs><style type="text/css"></style></defs><path d="M357.016183 324.579423c48.618301 13.208836 87.97568 41.644469 122.822326 76.41539-13.109576 20.255323-25.89067 40.005133-38.457894 59.421344-11.907191-11.050684-22.947641-22.889313-35.560914-32.705889-39.116903-30.444383-82.269725-49.437969-133.408429-42.779316-54.804187 7.136537-98.025571 48.703235-108.441804 104.09787-10.06217 53.513798 17.163915 109.602234 66.146513 135.347594 43.388183 22.805402 87.005586 18.225083 130.016169-0.896416 51.5337-22.910802 86.865393-62.700017 113.945145-111.062492 12.716626-22.710234 25.775037-45.349861 40.422641-66.833151 39.844473-58.434877 92.446505-100.882642 160.665213-121.905444 40.289612-11.69025 51.906184-9.903557 83.087347-8.498558 109.261473 13.46057 185.662537 112.407116 171.680081 222.313272-10.393721 81.700767-71.26816 148.645458-151.651932 166.580946-10.223852 2.28095-20.605294 3.860934-30.913057 5.765307-8.700149 0-17.399275 0-26.099425 0-2.329045-0.681522-4.615111-1.680269-6.992251-1.997494-65.260329-8.691963-118.320802-40.361243-163.588799-85.917812 12.651135-20.953218 24.957415-41.335431 37.554314-62.199621 2.331092 2.530636 4.619204 5.010107 6.904247 7.493671 21.455661 23.316032 45.844118 42.792619 74.795497 56.021921 26.635637 12.171204 54.087872 19.435655 83.908038 14.538111 64.456011-10.585079 112.76732-68.806085 108.308775-131.202181-5.29561-74.098625-53.31016-121.647571-124.703163-123.0802-29.720905-0.596588-56.697303 9.274224-82.154092 23.655769-50.480718 28.517497-84.231403 72.28328-111.420649 122.196063-10.219759 18.762319-20.913309 37.406958-33.04358 54.962799-40.021505 57.925271-93.281523 98.142228-161.739684 116.779703-29.961382 4.984524-50.068326 7.218402-78.622662 6.885827-34.971489-2.743484-66.708308-15.0733-94.539166-35.644825-65.940828-48.740074-94.198405-115.13218-79.887468-195.46274 14.385639-80.747046 64.451918-133.037992 143.342686-156.115594C275.459702 310.200948 332.763826 317.462329 357.016183 324.579423z" p-id="1987" fill="#000000"></path></svg>